<svg width="110" height="38" viewBox="0 0 1108 386" fill="none" xmlns="http://www.w3.org/2000/svg">
<path d="M87.627 88C74.8595 88 62.9897 90.1445 51.9678 94.4336C40.9458 98.7227 31.6195 104.608 24.0388 112.188C16.4581 119.62 10.5731 128.647 6.43363 139.27C2.14454 149.743 0 161.164 0 173.333C0 183.058 1.44632 192.384 4.13947 200.963C6.73287 209.69 10.7227 217.421 15.8596 224.453C20.9966 231.485 27.1808 237.47 34.2129 242.507C41.3947 247.644 49.3744 251.534 58.551 254.227C67.578 256.97 77.3033 258.367 87.627 258.367C104.684 258.367 119.695 254.776 133.012 247.644C146.328 240.612 156.651 230.587 164.083 217.57C171.514 204.703 175.404 189.941 175.404 173.333C175.404 160.865 173.11 149.294 168.82 138.671C167.224 134.681 165.08 131.24 163.085 127.649C173.658 127.2 182.137 118.472 182.137 107.899V88H87.627ZM118.149 206C109.97 214.578 99.8459 218.867 87.627 218.867C75.4081 218.867 64.8849 214.428 56.8553 205.701C48.6761 196.973 44.6863 186.25 44.6863 173.333C44.6863 160.416 48.6761 149.294 56.7057 140.666C64.5857 131.938 75.0091 127.649 87.627 127.649C100.245 127.649 110.269 131.938 118.249 140.417C126.428 148.995 130.568 159.867 130.568 173.333C130.568 186.799 126.428 197.372 118.1 206H118.149Z" fill="white"/>
<path d="M25.1614 326.793H136.229C158.073 326.793 175.778 309.088 175.778 287.243H64.6609C42.8165 287.243 25.1116 304.948 25.1116 326.793H25.1614Z" fill="white"/>
<path d="M175.775 287.193L175.775 176.126C175.775 154.281 158.07 136.577 136.225 136.577L136.225 287.193C136.225 309.038 153.93 287.243 175.775 287.243L175.775 287.193Z" fill="white"/>
<path d="M302.726 182.917V94.9727H347.985V253H302.726V235.593C291.071 249.67 275.783 256.633 256.71 256.784C239.152 256.784 225.075 251.335 214.479 240.437C203.732 229.689 198.434 215.158 198.434 197.146V94.9727H243.693V183.522C243.693 201.232 255.045 213.039 271.998 213.039C281.08 213.039 288.497 210.163 294.249 204.562C299.85 198.962 302.726 191.848 302.726 182.917ZM423.529 256.784C405.971 256.784 391.288 251.789 379.481 241.647C367.675 231.657 361.771 219.396 361.771 205.017H407.03C407.03 213.645 414.75 220.759 423.832 220.759C432.46 220.759 439.271 215.31 439.271 208.649C439.271 200.778 430.795 195.026 413.842 191.242C380.541 183.371 363.89 166.721 364.042 141.14C364.042 125.549 369.794 113.439 381.146 104.509C392.499 95.5781 406.425 91.1885 422.924 91.1885C439.877 91.1885 454.105 96.0322 465.458 105.568C476.81 115.104 482.411 126.911 482.411 140.837H437.152C437.152 133.42 430.946 127.214 422.621 127.214C415.204 127.214 409.301 132.36 409.301 137.961C409.301 145.681 418.08 151.584 435.638 155.671C449.413 158.85 458.798 162.785 468.939 170.202C479.081 177.619 484.53 189.426 484.53 204.714C484.53 220.91 478.778 233.625 467.123 242.858C455.468 252.092 440.936 256.784 423.529 256.784ZM560.68 94.9727H591.256V136.145H560.68V253H515.421V136.145H486.51V94.9727H515.421V58.3418L560.68 48.3516V94.9727ZM656.81 72.873C652.118 77.5654 646.063 79.9873 638.949 79.9873C631.683 79.9873 625.629 77.5654 620.936 72.873C616.092 68.1807 613.671 62.126 613.671 54.8604C613.671 47.7461 616.092 41.8428 620.936 37.1504C625.629 32.458 631.683 30.0361 638.949 30.0361C646.063 30.0361 652.118 32.458 656.81 37.1504C661.503 41.9941 663.924 47.8975 663.924 54.8604C663.924 62.126 661.503 68.1807 656.81 72.873ZM724.623 72.873C719.628 77.5654 713.724 79.9873 706.761 79.9873C699.647 79.9873 693.744 77.5654 688.9 72.873C684.056 68.1807 681.634 62.126 681.634 54.8604C681.634 47.7461 684.056 41.8428 688.749 37.1504C693.441 32.458 699.496 30.0361 706.761 30.0361C713.876 30.0361 719.93 32.458 724.774 37.1504C729.466 41.9941 731.888 47.8975 731.888 54.8604C731.888 62.126 729.466 68.1807 724.623 72.873ZM733.856 233.02C717.66 248.913 697.377 256.784 673.006 256.784C648.636 256.784 628.202 248.913 612.005 233.02C595.809 217.126 587.635 197.448 587.635 173.835C587.635 150.373 595.809 130.695 612.005 114.802C628.202 99.0596 648.636 91.1885 673.006 91.1885C697.377 91.1885 717.66 99.0596 733.856 114.802C750.052 130.695 758.226 150.373 758.226 173.835C758.226 197.448 750.052 217.126 733.856 233.02ZM645.306 201.838C652.572 209.255 661.805 213.039 673.006 213.039C684.056 213.039 693.29 209.255 700.707 201.838C708.124 194.421 711.756 185.036 711.756 173.835C711.756 162.785 708.124 153.4 700.707 145.983C693.29 138.566 684.056 134.934 673.006 134.934C661.805 134.934 652.572 138.566 645.306 145.983C637.889 153.4 634.256 162.785 634.256 173.835C634.256 185.036 637.889 194.421 645.306 201.838Z" fill="white"/>
<path d="M953.622 197.763C956.978 197.763 959.663 199.167 962.012 201.273C964.026 203.73 965.368 206.537 965.368 210.047C965.368 214.258 964.026 217.066 962.012 219.172C959.663 221.278 956.978 223.383 954.293 224.787C951.608 226.191 948.923 227.946 946.91 229.35C944.56 231.105 943.554 233.561 943.554 236.369C943.554 239.177 944.56 242.335 946.574 246.196C948.588 250.407 952.615 252.162 958.656 252.162C965.368 252.162 972.08 248.653 979.128 241.633C985.84 234.614 992.216 225.489 997.922 213.908C1003.63 202.677 1008.33 189.691 1012.02 175.302C1015.37 160.913 1017.39 146.172 1017.39 131.081C1017.39 128.273 1017.05 124.764 1016.72 120.903C1016.38 117.043 1015.71 113.533 1015.04 110.023C1014.03 106.514 1012.69 103.706 1011.01 101.249C1009 99.1436 1006.65 97.7398 1003.96 97.7398C999.935 97.7398 996.244 99.4946 992.552 102.653C988.525 106.163 984.833 110.374 981.477 115.288C978.121 120.552 974.765 126.168 971.744 132.485C968.724 138.802 966.039 144.417 964.026 150.033L961.341 157.052L954.629 154.244L957.313 147.225C959.998 140.557 963.019 133.889 966.375 126.869C969.731 119.85 973.758 113.533 978.121 107.918C982.148 102.302 986.847 97.7398 991.881 94.2302C996.579 90.7206 1001.95 88.9658 1007.32 88.9658C1012.69 88.9658 1017.05 90.3696 1020.74 93.1773C1024.1 95.985 1027.12 99.1436 1029.13 103.355C1031.15 107.567 1032.82 112.48 1033.83 117.394C1034.5 122.658 1035.17 127.571 1035.51 132.485C1041.89 119.85 1049.27 109.321 1057.32 101.249C1065.38 93.1773 1074.1 88.9658 1082.83 88.9658C1091.22 88.9658 1097.6 92.1244 1101.62 98.0907C1105.65 104.408 1108 111.778 1108 120.552C1108 131.081 1105.65 139.153 1101.62 144.417C1097.6 149.682 1092.9 152.139 1087.86 152.139C1084.51 152.139 1081.49 151.086 1079.47 148.629C1077.12 146.523 1076.12 143.365 1076.12 139.855C1076.12 135.994 1077.12 132.836 1079.47 130.73C1081.49 128.624 1084.17 126.869 1086.86 125.466C1089.54 124.062 1092.23 122.307 1094.58 120.552C1096.59 119.148 1097.93 116.692 1097.93 113.533C1097.93 111.076 1096.59 107.918 1094.58 103.706C1092.56 99.8455 1088.54 97.7398 1082.83 97.7398C1076.12 97.7398 1069.07 101.249 1062.36 108.269C1055.31 115.288 1048.93 124.764 1043.23 135.994C1037.52 147.225 1032.82 160.211 1029.47 174.6C1025.78 189.34 1024.1 204.081 1024.1 218.821C1024.1 221.98 1024.1 225.489 1024.43 229.35C1024.77 233.21 1025.44 236.72 1026.45 240.23C1027.12 243.739 1028.46 246.547 1030.48 248.653C1032.15 251.109 1034.5 252.162 1037.52 252.162C1041.21 252.162 1044.91 250.758 1048.93 247.249C1052.63 244.09 1056.32 239.879 1059.67 234.614C1063.03 229.701 1066.39 224.085 1069.41 217.768C1072.43 211.451 1075.11 205.484 1077.46 199.869L1080.14 192.85L1086.86 195.658L1084.17 202.677C1081.49 209.696 1078.13 216.364 1074.78 223.383C1071.42 230.403 1067.39 236.369 1063.36 241.984C1059 247.6 1054.3 252.162 1049.6 255.672C1044.57 259.181 1039.54 260.936 1034.17 260.936C1028.8 260.936 1024.1 259.883 1020.74 257.076C1017.05 254.619 1014.03 251.109 1012.02 246.898C1010 242.686 1008.33 238.124 1007.32 232.859C1006.31 227.946 1005.64 222.682 1005.64 217.417C998.928 230.754 991.881 241.282 983.826 249.004C975.772 257.076 967.382 260.936 958.656 260.936C949.93 260.936 943.554 258.128 939.526 251.811C935.499 245.845 933.485 238.475 933.485 229.35C933.485 218.821 935.499 211.1 939.526 205.835C943.554 200.571 948.252 197.763 953.622 197.763Z" fill="white"/>
<path d="M749 255.672L751.685 248.653H753.363C762.424 248.653 768.801 247.249 772.828 243.739C776.855 240.581 780.547 234.614 783.903 225.84L855.722 39.8316C859.078 31.0576 860.085 25.0913 858.743 21.9327C857.4 18.774 852.031 17.0192 842.634 17.0192H840.956L843.641 10H902.372C913.782 10 924.186 11.4038 933.583 13.5096C942.98 15.9663 950.363 19.4759 956.404 24.3894C962.445 29.3028 966.137 35.6201 967.815 43.3412C969.493 51.0623 968.15 60.5382 964.123 71.418C960.767 79.4901 956.74 86.8602 951.37 93.1775C946 99.4948 940.295 105.11 933.583 110.024C926.871 114.937 919.823 119.149 912.104 122.658C904.385 126.168 896.666 128.624 888.612 130.379L889.283 225.84C889.283 234.263 890.625 239.879 892.639 243.388C894.653 246.898 899.015 248.653 905.728 248.653H910.762L908.077 255.672H870.153V133.889C867.469 134.591 864.784 134.591 862.099 134.591H854.044H838.942L803.704 225.84C800.348 234.965 799.341 240.932 800.683 244.09C802.026 247.249 807.395 248.653 816.792 248.653H818.47L815.785 255.672H749ZM842.634 125.817H857.736C864.784 125.817 872.503 125.115 880.557 123.36C888.612 121.605 896.331 118.798 903.714 114.586C911.097 110.375 918.145 104.759 924.857 97.74C931.234 90.7208 936.603 81.9468 940.631 71.418C944.658 60.8892 946 52.4661 944.993 45.447C943.651 38.7787 940.966 33.5143 936.603 29.3028C931.905 25.4422 926.535 22.6346 919.823 21.2307C913.111 19.8269 906.063 18.774 899.015 18.774C892.975 18.774 888.612 20.5288 885.256 23.3365C881.9 26.4951 878.879 32.1105 875.859 39.8316L842.634 125.817Z" fill="white"/>
</svg>
